<?xml version="1.0" standalone="no"?>
<!DOCTYPE svg PUBLIC "-//W3C//DTD SVG 20010904//EN"
 "http://www.w3.org/TR/2001/REC-SVG-20010904/DTD/svg10.dtd">
<svg version="1.0" xmlns="http://www.w3.org/2000/svg"
 width="259.000000pt" height="194.000000pt" viewBox="0 0 259.000000 194.000000"
 preserveAspectRatio="xMidYMid meet">

<g transform="translate(0.000000,194.000000) scale(0.100000,-0.100000)"
fill="#000000" stroke="none">
<path d="M0 970 l0 -970 1295 0 1295 0 0 970 0 970 -1295 0 -1295 0 0 -970z
m950 295 l0 -115 44 6 c67 10 90 0 109 -43 12 -29 57 -303 57 -345 0 -14 -100
-9 -100 5 -2 59 -20 266 -26 280 -4 11 -17 17 -40 17 l-34 0 0 -155 0 -155
-45 0 c-28 0 -47 5 -50 13 -2 6 -6 141 -10 298 l-6 286 33 10 c70 23 68 25 68
-102z m1407 21 c2 -1 -15 -112 -36 -247 -21 -134 -41 -237 -44 -229 -8 18
-117 495 -117 508 0 7 187 -23 197 -32z m-403 19 l36 -15 0 -70 0 -69 53 -3
52 -3 3 -37 3 -38 -53 0 -54 0 4 -97 c2 -54 5 -104 8 -112 4 -13 35 -12 77 4
15 6 17 0 17 -52 0 -77 -20 -98 -91 -97 -81 1 -86 11 -94 185 l-8 149 -28 0
c-34 0 -35 2 -44 68 l-7 52 41 0 41 0 0 75 c0 41 2 75 4 75 2 0 20 -7 40 -15z
m-1498 -150 l95 87 49 -18 50 -19 -70 -76 -69 -77 44 -161 c25 -88 45 -163 45
-166 0 -4 -24 -5 -52 -3 l-53 3 -34 123 -35 122 -33 -32 c-33 -32 -33 -33 -33
-125 l0 -93 -55 0 -55 0 0 270 0 269 43 11 c23 6 47 12 52 14 6 2 11 -40 13
-107 l3 -109 95 87z m341 -10 c38 -25 46 -77 38 -249 l-7 -156 -83 0 c-73 0
-87 3 -110 23 -33 28 -46 83 -33 139 11 52 40 85 94 109 74 33 56 90 -21 68
-16 -5 -31 -9 -31 -9 -1 0 -7 14 -13 32 -13 38 -8 44 44 57 47 11 90 6 122
-14z m601 -29 c116 -60 136 -236 36 -315 -75 -59 -198 -28 -252 64 -48 83 -10
199 80 244 50 24 98 27 136 7z m377 -30 c113 -86 97 -249 -30 -307 -105 -48
-212 11 -231 127 -12 79 33 170 101 200 46 21 117 12 160 -20z m543 -362 c10
-34 9 -36 -20 -54 -30 -18 -31 -18 -59 3 -16 11 -29 21 -29 22 0 1 5 16 11 34
10 27 15 31 48 31 34 0 39 -3 49 -36z"/>
<path d="M693 924 c-21 -32 -22 -92 -2 -105 40 -25 59 5 59 99 0 25 -4 32 -20
32 -11 0 -27 -12 -37 -26z"/>
<path d="M1290 1032 c-46 -38 -35 -133 20 -162 70 -38 120 100 59 161 -24 24
-50 24 -79 1z"/>
<path d="M1641 1014 c-29 -36 -29 -116 -1 -144 24 -24 32 -25 69 -5 34 17 41
33 41 86 0 29 -7 47 -25 64 -31 32 -58 32 -84 -1z"/>
</g>
</svg>
